<svg width="16" height="16" viewBox="0 0 16 16" fill="none" xmlns="http://www.w3.org/2000/svg">
<mask id="path-1-inside-1_398_2047" fill="white">
<path fill-rule="evenodd" clip-rule="evenodd" d="M3.5 3C2.67157 3 2 3.67157 2 4.5V10V10.5V14.2227C2 14.5481 2.36775 14.7373 2.6325 14.5482L5.5 12.5L6.2 12H12.5C13.3284 12 14 11.3284 14 10.5V4.5C14 3.67157 13.3284 3 12.5 3H3.5Z"/>
</mask>
<path d="M2.6325 14.5482L3.06842 15.1585H3.06842L2.6325 14.5482ZM5.5 12.5L5.93593 13.1103H5.93593L5.5 12.5ZM6.2 12V11.25C6.04368 11.25 5.89127 11.2988 5.76407 11.3897L6.2 12ZM2.75 4.5C2.75 4.08579 3.08579 3.75 3.5 3.75V2.25C2.25736 2.25 1.25 3.25736 1.25 4.5H2.75ZM2.75 10V4.5H1.25V10H2.75ZM2.75 10.5V10H1.25V10.5H2.75ZM2.75 14.2227V10.5H1.25V14.2227H2.75ZM2.19657 13.9379C2.42822 13.7725 2.75 13.938 2.75 14.2227H1.25C1.25 15.1581 2.30728 15.7022 3.06842 15.1585L2.19657 13.9379ZM5.06407 11.8897L2.19657 13.9379L3.06842 15.1585L5.93593 13.1103L5.06407 11.8897ZM5.76407 11.3897L5.06407 11.8897L5.93593 13.1103L6.63593 12.6103L5.76407 11.3897ZM12.5 11.25H6.2V12.75H12.5V11.25ZM13.25 10.5C13.25 10.9142 12.9142 11.25 12.5 11.25V12.75C13.7426 12.75 14.75 11.7426 14.75 10.5H13.25ZM13.25 4.5V10.5H14.75V4.5H13.25ZM12.5 3.75C12.9142 3.75 13.25 4.08579 13.25 4.5H14.75C14.75 3.25736 13.7426 2.25 12.5 2.25V3.75ZM3.5 3.75H12.5V2.25H3.5V3.75Z" fill="#292D39" fill-opacity="0.45" mask="url(#path-1-inside-1_398_2047)"/>
</svg>
