<svg width="15" height="15" viewBox="0 0 15 15" fill="none" xmlns="http://www.w3.org/2000/svg">
<path d="M10.3348 8.44021C10.0303 8.25714 9.63203 8.0546 9.27284 8.20261C8.99564 8.31557 8.81995 8.74792 8.64036 8.96605C8.54666 9.07901 8.43734 9.09848 8.29679 9.04006C7.25827 8.62718 6.46571 7.93775 5.89179 6.98345C5.79419 6.83543 5.81371 6.71858 5.93083 6.58225C6.10262 6.37971 6.32125 6.14989 6.3681 5.87334C6.41495 5.60069 6.28612 5.28129 6.17289 5.0359C6.02844 4.72429 5.86446 4.28025 5.55212 4.10497C5.26321 3.94137 4.8845 4.03486 4.63073 4.2413C4.18955 4.59965 3.97482 5.16443 3.98263 5.72143C3.98263 5.88113 4.00215 6.03694 4.04119 6.19274C4.13099 6.55888 4.29887 6.90555 4.49408 7.22884C4.63854 7.47423 4.79471 7.71573 4.96649 7.94554C5.52089 8.69729 6.21194 9.35166 7.0123 9.83855C7.41053 10.0839 7.84 10.2982 8.28898 10.4423C8.78872 10.6059 9.2338 10.7773 9.77258 10.676C10.3387 10.5708 10.8931 10.2203 11.1195 9.67885C11.1859 9.51915 11.2171 9.33997 11.182 9.16859C11.0961 8.81803 10.6198 8.6077 10.3348 8.44021Z" fill="#03AB02"/>
<path d="M7.57028 0C3.47475 0 0.144456 3.32251 0.144456 7.40847C0.144456 8.65879 0.464603 9.88964 1.07756 10.9881L0 15L4.04477 13.9211C5.13014 14.5092 6.34435 14.8208 7.57418 14.8208C11.6697 14.8208 15 11.4983 15 7.41236C14.9961 3.32252 11.6658 0 7.57028 0ZM7.57028 13.4186C6.49271 13.4186 5.43077 13.1265 4.49375 12.5695L4.23998 12.4176L1.97944 13.0213L2.58069 10.7816L2.42452 10.5245C1.84669 9.58193 1.54216 8.50299 1.54216 7.40847C1.54216 4.09374 4.24388 1.39834 7.56637 1.39834C10.8889 1.39834 13.5906 4.09374 13.5906 7.40847C13.5906 10.7232 10.8928 13.4186 7.57028 13.4186Z" fill="#03AB02"/>
</svg>
