<svg width="28" height="28" viewBox="0 0 28 28" fill="none" xmlns="http://www.w3.org/2000/svg">
<rect width="28" height="28" rx="6" fill="#03AB02"/>
<path fill-rule="evenodd" clip-rule="evenodd" d="M5.43602 13.9746C10.1435 11.9898 13.2825 10.6812 14.8531 10.049C19.3376 8.24388 19.9603 7.98216 20.5677 7.97174C20.7012 7.96953 21.0271 8.02457 21.2812 8.23999C21.5354 8.4554 21.6117 8.59498 21.6332 8.71661C21.6547 8.83824 21.6525 9.21656 21.6312 9.43306C21.3882 11.9041 20.4648 17.6078 19.9298 20.3754C19.7035 21.5465 19.2578 21.9392 18.8263 21.9776C17.8885 22.0611 17.1765 21.3778 16.2682 20.8017C14.847 19.9001 14.3732 19.5673 12.9936 18.6875C11.3993 17.6707 12.056 17.3177 12.9645 16.4045C13.2023 16.1655 17.1415 12.5401 17.2 12.2073C17.251 11.917 17.2696 11.8795 17.1386 11.7485C17.0076 11.6176 16.851 11.6339 16.7504 11.656C16.6079 11.6873 14.4381 13.0731 10.241 15.8135C9.59658 16.2417 9.01286 16.4504 8.48986 16.4395C7.91329 16.4274 6.80421 16.124 5.97973 15.8646C4.96846 15.5465 4.16473 15.3783 4.23472 14.838C4.27117 14.5566 4.67161 14.2688 5.43602 13.9746Z" fill="white"/>
</svg>
