<svg width="28" height="28" viewBox="0 0 28 28" fill="none" xmlns="http://www.w3.org/2000/svg">
<rect width="28" height="28" rx="6" fill="#03AB02"/>
<path d="M14.001 3.81641C11.2608 3.81641 10.9169 3.8285 9.84058 3.87793C8.76641 3.92758 8.0332 4.09921 7.39164 4.35105C6.72801 4.61115 6.16507 4.95909 5.60423 5.52534C5.04297 6.09138 4.69823 6.65954 4.43967 7.32912C4.18952 7.97684 4.01925 8.71706 3.97091 9.80076C3.92277 10.887 3.91016 11.2343 3.91016 14C3.91016 16.7657 3.92235 17.1117 3.97112 18.198C4.02052 19.2821 4.19058 20.0221 4.43988 20.6696C4.69781 21.3394 5.04255 21.9076 5.6036 22.4736C6.16423 23.0401 6.72717 23.3889 7.39038 23.649C8.03236 23.9008 8.76578 24.0725 9.83974 24.1221C10.916 24.1715 11.2597 24.1836 13.9998 24.1836C16.7403 24.1836 17.0831 24.1715 18.1594 24.1221C19.2336 24.0725 19.9676 23.9008 20.6096 23.649C21.273 23.3889 21.8351 23.0401 22.3957 22.4736C22.957 21.9076 23.3017 21.3394 23.5603 20.6699C23.8083 20.0221 23.9786 19.2819 24.0291 18.1982C24.0774 17.112 24.09 16.7657 24.09 14C24.09 11.2343 24.0774 10.8872 24.0291 9.80097C23.9786 8.71684 23.8083 7.97684 23.5603 7.32933C23.3017 6.65954 22.957 6.09138 22.3957 5.52534C21.8345 4.95888 21.2732 4.61094 20.609 4.35105C19.9657 4.09921 19.2321 3.92758 18.1579 3.87793C17.0817 3.8285 16.739 3.81641 13.9979 3.81641H14.001ZM13.0959 5.65158C13.3645 5.65115 13.6643 5.65158 14.001 5.65158C16.6951 5.65158 17.0144 5.66134 18.0783 5.71013C19.062 5.75554 19.596 5.92144 19.9516 6.06083C20.4225 6.24541 20.7582 6.46605 21.1112 6.82248C21.4643 7.17891 21.6829 7.51836 21.8662 7.9936C22.0043 8.35214 22.1689 8.89103 22.2137 9.88393C22.262 10.9575 22.2726 11.2799 22.2726 13.9977C22.2726 16.7154 22.262 17.0379 22.2137 18.1114C22.1687 19.1043 22.0043 19.6432 21.8662 20.0018C21.6833 20.477 21.4643 20.8154 21.1112 21.1716C20.758 21.528 20.4227 21.7487 19.9516 21.9333C19.5964 22.0733 19.062 22.2388 18.0783 22.2842C17.0146 22.333 16.6951 22.3436 14.001 22.3436C11.3068 22.3436 10.9875 22.333 9.92382 22.2842C8.94004 22.2383 8.40611 22.0724 8.05023 21.9331C7.57936 21.7485 7.24302 21.5278 6.88987 21.1714C6.53672 20.815 6.3181 20.4764 6.1348 20.0009C5.99669 19.6424 5.8321 19.1035 5.78732 18.1106C5.73898 17.0371 5.72931 16.7146 5.72931 13.9951C5.72931 11.2757 5.73898 10.9549 5.78732 9.88138C5.83231 8.88848 5.99669 8.3496 6.1348 7.99063C6.31768 7.51539 6.53672 7.17594 6.88987 6.81951C7.24302 6.46308 7.57936 6.24244 8.05023 6.05744C8.4059 5.91741 8.94004 5.75193 9.92382 5.70631C10.8546 5.66388 11.2153 5.65115 13.0959 5.64903V5.65158ZM19.387 7.34248C18.7186 7.34248 18.1762 7.88921 18.1762 8.56409C18.1762 9.23875 18.7186 9.78612 19.387 9.78612C20.0555 9.78612 20.5978 9.23875 20.5978 8.56409C20.5978 7.88943 20.0555 7.34248 19.387 7.34248ZM14.001 8.77031C11.1395 8.77031 8.81938 11.1119 8.81938 14C8.81938 16.8881 11.1395 19.2287 14.001 19.2287C16.8626 19.2287 19.1819 16.8881 19.1819 14C19.1819 11.1119 16.8626 8.77031 14.001 8.77031ZM14.001 10.6055C15.8584 10.6055 17.3644 12.1252 17.3644 14C17.3644 15.8747 15.8584 17.3946 14.001 17.3946C12.1434 17.3946 10.6377 15.8747 10.6377 14C10.6377 12.1252 12.1434 10.6055 14.001 10.6055Z" fill="white"/>
</svg>
