<svg width="28" height="28" viewBox="0 0 28 28" fill="none" xmlns="http://www.w3.org/2000/svg">
<rect width="28" height="28" rx="6" fill="#03AB02"/>
<path d="M19.3972 12.085C20.6181 12.9337 22.1138 13.4331 23.7293 13.4331V10.4102C23.4235 10.4102 23.1186 10.3792 22.8195 10.3176V12.697C21.2042 12.697 19.7086 12.1977 18.4874 11.349V17.518C18.4874 20.604 15.9148 23.1056 12.7417 23.1056C11.5577 23.1056 10.4571 22.7575 9.54297 22.1605C10.5864 23.198 12.0414 23.8415 13.6512 23.8415C16.8246 23.8415 19.3973 21.34 19.3973 18.2538V12.085H19.3972ZM20.5195 9.0352C19.8955 8.3723 19.4858 7.51561 19.3972 6.56847V6.17969H18.535C18.7521 7.38345 19.4923 8.41186 20.5195 9.0352ZM11.55 19.7924C11.2014 19.3479 11.013 18.8041 11.0138 18.245C11.0138 16.8336 12.1905 15.6892 13.6422 15.6892C13.9127 15.689 14.1816 15.7294 14.4395 15.8089V12.7184C14.1382 12.6783 13.8341 12.6612 13.5301 12.6675V15.0729C13.2721 14.9934 13.0031 14.953 12.7324 14.9532C11.2808 14.9532 10.1041 16.0975 10.1041 17.5091C10.1041 18.5073 10.6923 19.3714 11.55 19.7924Z" fill="#03AB02"/>
<path d="M18.4883 11.349C19.7096 12.1977 21.205 12.697 22.8203 12.697V10.3175C21.9187 10.1307 21.1205 9.67254 20.5203 9.0352C19.4931 8.41179 18.7529 7.38338 18.5359 6.17969H16.2714V18.2537C16.2662 19.6613 15.0916 20.801 13.643 20.801C12.7894 20.801 12.031 20.4054 11.5507 19.7923C10.6931 19.3714 10.1049 18.5072 10.1049 17.5092C10.1049 16.0977 11.2816 14.9533 12.7332 14.9533C13.0114 14.9533 13.2794 14.9954 13.5309 15.073V12.6675C10.4134 12.7302 7.90625 15.2073 7.90625 18.2538C7.90625 19.7746 8.53057 21.1532 9.5439 22.1606C10.4581 22.7575 11.5585 23.1057 12.7426 23.1057C15.9158 23.1057 18.4884 20.604 18.4884 17.518V11.349L18.4883 11.349Z" fill="white"/>
<path d="M22.8199 10.318V9.67476C22.0068 9.67595 21.2097 9.45452 20.5199 9.03577C21.1305 9.68589 21.9347 10.1342 22.8199 10.3181V10.318ZM18.5354 6.18019C18.5147 6.06517 18.4988 5.94939 18.4878 5.83312V5.44434H15.361V17.5185C15.3561 18.926 14.1814 20.0657 12.7327 20.0657C12.322 20.0663 11.917 19.9729 11.5502 19.793C12.0305 20.4059 12.7889 20.8015 13.6425 20.8015C15.091 20.8015 16.2658 19.6619 16.2709 18.2543V6.18025H18.5354V6.18019ZM13.5306 12.668V11.9831C13.2693 11.9484 13.0059 11.931 12.7422 11.9311C9.56863 11.9311 6.99609 14.4327 6.99609 17.5185C6.99609 19.4531 8.00713 21.1581 9.54353 22.161C8.5302 21.1537 7.90588 19.775 7.90588 18.2543C7.90588 15.2078 10.413 12.7307 13.5306 12.668Z" fill="white"/>
</svg>
