<svg width="28" height="28" viewBox="0 0 28 28" fill="none" xmlns="http://www.w3.org/2000/svg">
<rect width="28" height="28" rx="6" fill="#03AB02"/>
<path d="M22.8044 18.5928C22.6205 19.5669 21.8389 20.3092 20.8735 20.4483C19.3563 20.6803 16.8277 20.9586 13.9772 20.9586C11.1727 20.9586 8.64412 20.6803 7.08097 20.4483C6.1155 20.3092 5.33393 19.5669 5.15003 18.5928C4.96613 17.5258 4.78223 15.9486 4.78223 14.0003C4.78223 12.052 4.96613 10.4748 5.15003 9.40782C5.33393 8.43365 6.1155 7.69143 7.08097 7.55227C8.59815 7.32032 11.1268 7.04199 13.9772 7.04199C16.8277 7.04199 19.3103 7.32032 20.8735 7.55227C21.8389 7.69143 22.6205 8.43365 22.8044 9.40782C22.9883 10.4748 23.2182 12.052 23.2182 14.0003C23.1722 15.9486 22.9883 17.5258 22.8044 18.5928Z" fill="white"/>
<path d="M11.9512 17.1663V10.6719L17.6725 13.9191L11.9512 17.1663Z" fill="#03AB02"/>
</svg>
