<svg width="28" height="28" viewBox="0 0 28 28" fill="none" xmlns="http://www.w3.org/2000/svg">
<rect width="28" height="28" rx="6" fill="#03AB02"/>
<path d="M17.3076 15.0976C16.9523 14.884 16.4877 14.6477 16.0686 14.8204C15.7452 14.9522 15.5403 15.4566 15.3307 15.711C15.2214 15.8428 15.0939 15.8655 14.9299 15.7974C13.7183 15.3157 12.7937 14.5114 12.1241 13.398C12.0102 13.2253 12.033 13.089 12.1696 12.9299C12.37 12.6936 12.6251 12.4255 12.6798 12.1029C12.7344 11.7848 12.5841 11.4122 12.452 11.1259C12.2835 10.7623 12.0922 10.2443 11.7278 10.0398C11.3907 9.84892 10.9489 9.95799 10.6528 10.1988C10.1381 10.6169 9.88761 11.2758 9.89672 11.9257C9.89672 12.112 9.9195 12.2937 9.96505 12.4755C10.0698 12.9027 10.2657 13.3071 10.4934 13.6843C10.662 13.9706 10.8441 14.2523 11.0446 14.5204C11.6914 15.3975 12.4976 16.1609 13.4313 16.729C13.8959 17.0152 14.397 17.2652 14.9208 17.4333C15.5038 17.6242 16.0231 17.8241 16.6517 17.706C17.3121 17.5833 17.9589 17.1743 18.2231 16.5426C18.3006 16.3563 18.337 16.1473 18.296 15.9473C18.1958 15.5384 17.6401 15.293 17.3076 15.0976Z" fill="white"/>
<path d="M14.082 5.25C9.30388 5.25 5.41853 9.12626 5.41853 13.8932C5.41853 15.3519 5.79204 16.7879 6.50716 18.0694L5.25 22.75L9.9689 21.4912C11.2352 22.1774 12.6517 22.541 14.0865 22.541C18.8647 22.541 22.75 18.6647 22.75 13.8978C22.7454 9.12627 18.8601 5.25 14.082 5.25ZM14.082 20.905C12.8248 20.905 11.5859 20.5642 10.4927 19.9144L10.1966 19.7371L7.55934 20.4415L8.2608 17.8286L8.0786 17.5286C7.40448 16.4289 7.04919 15.1702 7.04919 13.8932C7.04919 10.026 10.2012 6.88139 14.0774 6.88139C17.9537 6.88139 21.1057 10.026 21.1057 13.8932C21.1057 17.7604 17.9582 20.905 14.082 20.905Z" fill="white"/>
</svg>
